<?xml version="1.0" ?><svg xmlns="http://www.w3.org/2000/svg" xmlns:xlink="http://www.w3.org/1999/xlink" version="1.1" id="design" viewBox="0 0 100 100" style="enable-background:new 0 0 100 100;" xml:space="preserve"><style type="text/css">
	.st0{fill:#48EDE5;}
	.st1{fill:#333333;}
</style><g><path class="st0" d="M25.1,20.4h28.6c2.6,0,4.8,2.1,4.8,4.8v13.8c0,2.6-2.1,4.8-4.8,4.8H25.1c-2.6,0-4.8-2.1-4.8-4.8V25.1   C20.4,22.5,22.5,20.4,25.1,20.4z"/><g><path class="st1" d="M48,39.6h2.1c1.8,0,3.2,1.4,3.2,3.2v28.4c-0.9-0.7-2-1.1-3.2-1.1H35.4V39.6h2.1c0.6,0,1.1-0.5,1.1-1.1    c0-0.6-0.5-1.1-1.1-1.1h-3.2c-0.6,0-1.1,0.5-1.1,1.1v32.6c0,0.6,0.5,1.1,1.1,1.1h15.8c1.7,0,3.1,1.3,3.2,3c0,0.1,0,0.1,0,0.2    c0,0.6,0.5,1.1,1.1,1.1c0,0,0,0,0,0c0,0,0,0,0,0c0.6,0,1.1-0.5,1.1-1.1c0-0.1,0-0.1,0-0.2c0.1-1.7,1.5-3,3.2-3h15.8    c0.6,0,1.1-0.5,1.1-1.1V37.5c0-0.6-0.5-1.1-1.1-1.1c-0.6,0-1.1,0.5-1.1,1.1v32.6H58.6c-0.4,0-0.8,0-1.1,0.1    c0.7-0.6,1.5-1.1,2.4-1.3l10.6-3c0.5-0.1,0.8-0.5,0.8-1V32.2c0-0.3-0.2-0.6-0.4-0.8c-0.3-0.2-0.6-0.3-0.9-0.2l-10.5,3    c-2.5,0.7-4.4,2.5-5.5,4.8c-1-0.9-2.3-1.5-3.7-1.5H48c-0.6,0-1.1,0.5-1.1,1.1C46.9,39.1,47.4,39.6,48,39.6z M55.4,40.8    c0.6-2.2,2.3-3.9,4.5-4.5l9.2-2.6v30.4l-9.8,2.8c-1.5,0.4-2.8,1.3-3.8,2.3V41.7V40.8z"/><path class="st1" d="M78.6,40.6c-0.6,0-1.1,0.5-1.1,1.1v32.6H59.6c-0.6,0-1.1,0.5-1.1,1.1v2.1h-8.4v-2.1c0-0.6-0.5-1.1-1.1-1.1    H31.2V41.7c0-0.6-0.5-1.1-1.1-1.1c-0.6,0-1.1,0.5-1.1,1.1v33.7c0,0.6,0.5,1.1,1.1,1.1H48v2.1c0,0.6,0.5,1.1,1.1,1.1h10.5    c0.6,0,1.1-0.5,1.1-1.1v-2.1h17.9c0.6,0,1.1-0.5,1.1-1.1V41.7C79.6,41.1,79.1,40.6,78.6,40.6z"/><path class="st1" d="M40.1,51c0.2,0.1,0.4,0.2,0.6,0.2c0.2,0,0.3,0,0.5-0.1l4.2-2.1c0.4-0.2,0.6-0.5,0.6-0.9v-9.5    c0-0.6-0.5-1.1-1.1-1.1h-4.2c-0.6,0-1.1,0.5-1.1,1.1v11.6C39.6,50.5,39.8,50.8,40.1,51z M41.7,39.6h2.1v7.8l-2.1,1.1V39.6z"/><path class="st1" d="M33.3,34.9c3.4,0,6.1-2.7,6.1-6.1s-2.7-6.1-6.1-6.1c-3.4,0-6.1,2.7-6.1,6.1c0,1.3,0.4,2.5,1.1,3.5l-3.1,3.1    c-0.4,0.4-0.4,1.1,0,1.5c0.2,0.2,0.5,0.3,0.7,0.3s0.5-0.1,0.7-0.3l3.1-3.1C30.8,34.5,32,34.9,33.3,34.9z M33.3,24.9    c2.2,0,4,1.8,4,4s-1.8,4-4,4c-2.2,0-4-1.8-4-4S31.1,24.9,33.3,24.9z"/></g></g></svg>