<svg id="Layer_1" data-name="Layer 1" xmlns="http://www.w3.org/2000/svg" viewBox="0 0 94 94"><path d="M47,39.48A16.78,16.78,0,1,1,63.78,22.7,16.8,16.8,0,0,1,47,39.48ZM47,7.42A15.28,15.28,0,1,0,62.28,22.7,15.3,15.3,0,0,0,47,7.42Z"/><path d="M50.43,44.15a4.43,4.43,0,0,1-2.06-.74A3.45,3.45,0,0,0,47,42.84a3.45,3.45,0,0,0-1.37.57,3.78,3.78,0,0,1-2.41.71,3.78,3.78,0,0,1-2.06-1.52,3.38,3.38,0,0,0-1-1,3.53,3.53,0,0,0-1.46.06,3.78,3.78,0,0,1-2.53-.15,3.74,3.74,0,0,1-1.4-2.13,3.31,3.31,0,0,0-.66-1.28,3.39,3.39,0,0,0-1.39-.44,3.73,3.73,0,0,1-2.33-1,3.79,3.79,0,0,1-.59-2.46,3.54,3.54,0,0,0-.19-1.45,3.4,3.4,0,0,0-1.15-.87,3.81,3.81,0,0,1-1.85-1.76,3.68,3.68,0,0,1,.29-2.5,3.5,3.5,0,0,0,.32-1.44A3.54,3.54,0,0,0,26.4,25a3.79,3.79,0,0,1-1.15-2.3,3.79,3.79,0,0,1,1.15-2.3,3.37,3.37,0,0,0,.77-1.2,3.56,3.56,0,0,0-.32-1.44,3.68,3.68,0,0,1-.29-2.5,3.75,3.75,0,0,1,1.85-1.75,3.54,3.54,0,0,0,1.15-.88,3.46,3.46,0,0,0,.19-1.44,3.8,3.8,0,0,1,.59-2.47,3.8,3.8,0,0,1,2.33-1,3.56,3.56,0,0,0,1.39-.43A3.44,3.44,0,0,0,34.72,6a3.79,3.79,0,0,1,1.4-2.13,3.78,3.78,0,0,1,2.53-.15,3.4,3.4,0,0,0,1.46.07,3.43,3.43,0,0,0,1-1,3.82,3.82,0,0,1,2.06-1.52A3.75,3.75,0,0,1,45.63,2,3.45,3.45,0,0,0,47,2.57,3.45,3.45,0,0,0,48.37,2a3.73,3.73,0,0,1,2.41-.72A3.82,3.82,0,0,1,52.84,2.8a3.43,3.43,0,0,0,1,1,3.56,3.56,0,0,0,1.46-.07,3.78,3.78,0,0,1,2.53.15A3.78,3.78,0,0,1,59.28,6a3.44,3.44,0,0,0,.66,1.29,3.4,3.4,0,0,0,1.39.43,3.78,3.78,0,0,1,2.33,1,3.8,3.8,0,0,1,.59,2.47,3.46,3.46,0,0,0,.19,1.44,3.41,3.41,0,0,0,1.15.88,3.75,3.75,0,0,1,1.85,1.75,3.71,3.71,0,0,1-.29,2.51,3.49,3.49,0,0,0-.32,1.43,3.37,3.37,0,0,0,.77,1.2,3.79,3.79,0,0,1,1.15,2.3A3.79,3.79,0,0,1,67.6,25a3.54,3.54,0,0,0-.77,1.2,3.5,3.5,0,0,0,.32,1.44,3.68,3.68,0,0,1,.29,2.5,3.81,3.81,0,0,1-1.85,1.76,3.4,3.4,0,0,0-1.15.87,3.54,3.54,0,0,0-.19,1.45,3.79,3.79,0,0,1-.59,2.46,3.75,3.75,0,0,1-2.33,1,3.39,3.39,0,0,0-1.39.44,3.31,3.31,0,0,0-.66,1.28,3.79,3.79,0,0,1-1.4,2.13,3.79,3.79,0,0,1-2.53.15,3.53,3.53,0,0,0-1.46-.06,3.38,3.38,0,0,0-1,1,3.84,3.84,0,0,1-2.06,1.53A2.06,2.06,0,0,1,50.43,44.15ZM47,41.34a4.46,4.46,0,0,1,2.11.76,3,3,0,0,0,1.41.55c.36-.07.77-.55,1.18-1a4.22,4.22,0,0,1,1.68-1.41,4.39,4.39,0,0,1,2.22,0,2.84,2.84,0,0,0,1.53,0,2.82,2.82,0,0,0,.74-1.35A4.37,4.37,0,0,1,59,37a4.29,4.29,0,0,1,2.08-.76,2.88,2.88,0,0,0,1.45-.5,2.79,2.79,0,0,0,.24-1.52A4.46,4.46,0,0,1,63.14,32a4.25,4.25,0,0,1,1.69-1.41c.53-.32,1.08-.64,1.2-1a2.87,2.87,0,0,0-.29-1.49,4.44,4.44,0,0,1-.39-2.2,4.36,4.36,0,0,1,1.09-1.89c.4-.48.81-1,.81-1.35s-.41-.87-.81-1.34a4.4,4.4,0,0,1-1.09-1.9,4.48,4.48,0,0,1,.39-2.2A2.85,2.85,0,0,0,66,15.77c-.12-.33-.67-.66-1.2-1a4.33,4.33,0,0,1-1.69-1.41,4.48,4.48,0,0,1-.39-2.19,2.77,2.77,0,0,0-.24-1.51,2.78,2.78,0,0,0-1.45-.5A4.4,4.4,0,0,1,59,8.43a4.44,4.44,0,0,1-1.11-1.92c-.21-.57-.43-1.17-.74-1.35a2.94,2.94,0,0,0-1.53,0,4.28,4.28,0,0,1-2.22,0A4.3,4.3,0,0,1,51.7,3.78c-.41-.47-.82-1-1.18-1a2.92,2.92,0,0,0-1.41.54A4.37,4.37,0,0,1,47,4.07a4.37,4.37,0,0,1-2.11-.77,2.92,2.92,0,0,0-1.41-.54c-.36.06-.77.55-1.18,1a4.35,4.35,0,0,1-1.67,1.41,4.43,4.43,0,0,1-2.23,0,2.9,2.9,0,0,0-1.52,0c-.32.18-.54.78-.75,1.35A4.35,4.35,0,0,1,35,8.43a4.4,4.4,0,0,1-2.08.76,2.78,2.78,0,0,0-1.45.5,2.77,2.77,0,0,0-.24,1.51,4.44,4.44,0,0,1-.39,2.18,4.27,4.27,0,0,1-1.69,1.42c-.53.31-1.08.63-1.2,1a2.85,2.85,0,0,0,.29,1.49,4.48,4.48,0,0,1,.39,2.2,4.4,4.4,0,0,1-1.09,1.9c-.4.47-.81,1-.81,1.34s.41.87.81,1.35a4.36,4.36,0,0,1,1.09,1.89,4.44,4.44,0,0,1-.39,2.2A2.85,2.85,0,0,0,28,29.63c.12.34.67.66,1.2,1A4.35,4.35,0,0,1,30.86,32a4.46,4.46,0,0,1,.39,2.18,2.81,2.81,0,0,0,.24,1.52,2.88,2.88,0,0,0,1.45.5A4.29,4.29,0,0,1,35,37a4.47,4.47,0,0,1,1.11,1.91,2.82,2.82,0,0,0,.74,1.35,2.84,2.84,0,0,0,1.53,0,4.39,4.39,0,0,1,2.22,0,4.22,4.22,0,0,1,1.68,1.41c.41.47.82.95,1.18,1a3,3,0,0,0,1.41-.55A4.36,4.36,0,0,1,47,41.34Z"/><path d="M52,30.38a.81.81,0,0,1-.34-.08L47,27.83,42.31,30.3a.75.75,0,0,1-.78-.06.74.74,0,0,1-.3-.74l.89-5.21-3.79-3.7a.76.76,0,0,1-.19-.77.75.75,0,0,1,.61-.51L44,18.55l2.35-4.74a.77.77,0,0,1,1.34,0L50,18.55l5.23.76a.75.75,0,0,1,.61.51.76.76,0,0,1-.19.77l-3.79,3.7.89,5.21a.74.74,0,0,1-.3.74A.77.77,0,0,1,52,30.38Zm-5-4.15a.73.73,0,0,1,.35.09L51,28.26l-.71-4.11a.74.74,0,0,1,.22-.66l3-2.91L49.41,20a.78.78,0,0,1-.57-.41L47,15.83l-1.84,3.74a.78.78,0,0,1-.57.41l-4.12.6,3,2.91a.74.74,0,0,1,.22.66L43,28.26l3.69-1.94A.73.73,0,0,1,47,26.23Z"/><path d="M39.62,64a.76.76,0,0,1-.65-.37l-3.61-6.12L28,59.64a.75.75,0,0,1-.91-1l7.47-20.19a.74.74,0,0,1,1-.44A.75.75,0,0,1,36,39l-7,18.8L35.5,56a.73.73,0,0,1,.85.34l3.09,5.23,6.85-19.68a.75.75,0,0,1,1.42.49L40.32,63.54a.75.75,0,0,1-.63.5Z"/><path d="M54.38,64h-.07a.75.75,0,0,1-.63-.5L46.29,42.33a.75.75,0,0,1,1.42-.49l6.85,19.68,3.09-5.23A.73.73,0,0,1,58.5,56L65,57.79,58,39a.75.75,0,0,1,1.41-.52l7.47,20.19a.75.75,0,0,1-.91,1l-7.36-2.09L55,63.67A.76.76,0,0,1,54.38,64Z"/><path d="M54.27,90.75h-.49a24.22,24.22,0,0,1-5.71-1.32c-.92-.3-1.88-.61-2.81-.84-3.9-1-7.72-1.82-11.34-2.53l-1.1-.22c-4.66-.92-9.48-1.87-14-1.32a.72.72,0,0,1-.59-.19.79.79,0,0,1-.25-.58l.5-15.33a.75.75,0,0,1,.67-.72,87.31,87.31,0,0,0,9.83-1.77c2.83-.71,10.27-1.72,18.09,4.15a7.59,7.59,0,0,0,3.61,1.49l5.29.66a9.34,9.34,0,0,0,3.22-.16c3.07-.71,8.36-1.42,10.64,1.36a40.82,40.82,0,0,1,7.38-2.88,22.77,22.77,0,0,1,10.23-.8,4.93,4.93,0,0,1,3.78,2.72,2.66,2.66,0,0,1-.6,2.74,5.17,5.17,0,0,1-2.22,1.31c-8.87,3.28-17.54,6.63-26.1,11.57C59.19,89.85,56.5,90.75,54.27,90.75Zm-32.69-7.9a60.21,60.21,0,0,1,11.53,1.51l1.1.22c3.65.71,7.49,1.57,11.41,2.54,1,.25,2,.56,2.91.87a22.17,22.17,0,0,0,5.35,1.25c2,.14,4.59-.7,7.63-2.46,8.66-5,17.4-8.37,26.33-11.67a3.78,3.78,0,0,0,1.61-.9A1.13,1.13,0,0,0,89.77,73a3.53,3.53,0,0,0-2.6-1.75,21.39,21.39,0,0,0-9.59.76,39.06,39.06,0,0,0-7.06,2.76A2.83,2.83,0,0,1,70.3,77c-1.72,3.17-9.46,4.58-12.08,4.74-3.2.18-10.68,0-13.56-1.09a.75.75,0,0,1-.45-1,.76.76,0,0,1,1-.45c2.46.91,9.42,1.21,13,1,3-.18,9.65-1.74,10.85-4a1.42,1.42,0,0,0-.08-1.48C67.34,72,61.8,73,59.49,73.52a10.62,10.62,0,0,1-3.74.18L50.45,73a9,9,0,0,1-4.32-1.77c-7.31-5.48-14.2-4.55-16.83-3.9a85,85,0,0,1-9.38,1.73l-.45,13.83C20.17,82.88,20.87,82.85,21.58,82.85Z"/><path d="M19.19,69.18h0a.75.75,0,0,1-.73-.76l0-1.55H15a.75.75,0,1,1,0-1.5h4.22a.74.74,0,0,1,.75.77l0,2.31A.74.74,0,0,1,19.19,69.18Z"/><path d="M18.54,88.18H15.65a.75.75,0,0,1,0-1.5h2.17l.12-2.94a.75.75,0,0,1,1.5.06l-.15,3.66A.74.74,0,0,1,18.54,88.18Z"/><path d="M3.41,92.75a.74.74,0,0,1-.74-.7.75.75,0,0,1,.69-.8L15,90.44,14.24,65l-9.82-.68a.75.75,0,1,1,.1-1.5l10.5.73a.75.75,0,0,1,.7.73l.79,26.82a.74.74,0,0,1-.69.77l-12.36.86Z"/></svg>