<?xml version="1.0" ?><svg id="Layer_1_1_" style="enable-background:new 0 0 64 64;" version="1.1" viewBox="0 0 64 64" xml:space="preserve" xmlns="http://www.w3.org/2000/svg" xmlns:xlink="http://www.w3.org/1999/xlink"><path d="M52,59V42H36v20h19C53.346,62,52,60.654,52,59z M39,46h4v4h-4V46z M50,58.5H38v-1h12V58.5z M50,54.5H38v-1h12V54.5z   M50,50.5h-5v-1h5V50.5z M50,46.5h-5v-1h5V46.5z"/><path d="M57.5,59v-6.5h-5V59c0,1.38,1.12,2.5,2.5,2.5S57.5,60.38,57.5,59z"/><path d="M32.5,37.494c2.205-0.013,4.355-0.11,6.388-0.285c-0.054-1.736-0.276-3.435-0.669-5.041  c-1.826,0.138-3.748,0.213-5.719,0.224V37.494z"/><path d="M32.5,27.779v3.614c1.873-0.011,3.7-0.081,5.447-0.208c-0.42-1.43-0.971-2.771-1.647-3.983  C35.186,27.539,33.889,27.74,32.5,27.779z"/><path d="M10,13c0,3.314,2.686,6,6,6s6-2.686,6-6h-1.941l-3-6H31v18.049c-1.351,0.105-2.646,0.41-3.851,0.896  c1.281,0.534,3.004,0.849,4.851,0.849s3.57-0.315,4.851-0.849c-1.205-0.485-2.5-0.791-3.851-0.896V7h13.941l-3,6H42  c0,3.314,2.686,6,6,6s6-2.686,6-6h-1.941l-3-6H50V5H32H14v2h0.941l-3,6H10z M50.941,13h-5.882L48,7.118L50.941,13z M16,7.118  L18.941,13h-5.882L16,7.118z"/><circle cx="32" cy="3" r="2"/><path d="M25.309,43.478c1.983,0.165,4.072,0.256,6.191,0.268v-5.251c-2.35-0.014-4.645-0.12-6.802-0.316  C24.711,40.001,24.923,41.786,25.309,43.478z"/><path d="M39.222,32.083c0.383,1.61,0.605,3.304,0.663,5.033c1.796-0.181,3.478-0.425,5.005-0.725  c-0.215-1.736-0.769-3.364-1.599-4.819C42.012,31.778,40.66,31.954,39.222,32.083z"/><path d="M44.63,41c0.232-0.964,0.37-1.964,0.37-3c0-0.204-0.021-0.402-0.031-0.604c-1.549,0.299-3.249,0.543-5.061,0.723  c-0.004,0.973-0.069,1.934-0.18,2.88H44.63z"/><path d="M38.023,26.485c-0.241,0.133-0.497,0.26-0.771,0.375c0.706,1.296,1.28,2.723,1.711,4.242  c1.316-0.115,2.559-0.272,3.757-0.451C41.522,28.907,39.908,27.474,38.023,26.485z"/><path d="M35,44.689c-0.826,0.029-1.659,0.051-2.5,0.056v3.475c0.88,0.025,1.717,0.121,2.5,0.27V44.689z"/><path d="M19,38c0,1.696,0.334,3.311,0.925,4.796c1.347,0.237,2.805,0.432,4.34,0.583c-0.364-1.702-0.565-3.485-0.57-5.303  c-1.663-0.175-3.23-0.403-4.665-0.68C19.021,37.598,19,37.797,19,38z"/><path d="M19.11,36.393c1.415,0.277,2.964,0.506,4.611,0.682c0.061-1.727,0.284-3.419,0.669-5.026  c-1.29-0.123-2.511-0.285-3.684-0.471C19.878,33.031,19.324,34.658,19.11,36.393z"/><path d="M25.977,49.515c0.146-0.082,0.289-0.165,0.449-0.24c-0.817-1.469-1.467-3.111-1.924-4.867  c-1.43-0.134-2.797-0.306-4.078-0.513C21.649,46.296,23.592,48.264,25.977,49.515z"/><path d="M31.5,48.221v-3.475c-2.026-0.012-4.023-0.096-5.933-0.247c0.441,1.589,1.041,3.076,1.793,4.405  C28.545,48.501,29.969,48.264,31.5,48.221z"/><path d="M31.5,32.393c-2.107-0.012-4.16-0.097-6.108-0.255c-0.395,1.605-0.619,3.304-0.675,5.039  c2.146,0.197,4.436,0.303,6.782,0.317V32.393z"/><path d="M21.278,30.654c1.089,0.157,2.209,0.296,3.377,0.404c0.445-1.555,1.038-3.014,1.771-4.332  c-0.159-0.075-0.303-0.158-0.449-0.24C24.091,27.474,22.477,28.908,21.278,30.654z"/><path d="M31.5,27.779c-1.531-0.043-2.955-0.28-4.139-0.683c-0.698,1.232-1.264,2.601-1.695,4.062  c1.868,0.146,3.829,0.219,5.835,0.23V27.779z"/><path d="M35,42c0-0.553,0.447-1,1-1h2.724c0.111-0.915,0.174-1.846,0.181-2.789c-2.042,0.174-4.197,0.271-6.405,0.284v5.251  c0.842-0.005,1.673-0.029,2.5-0.059V42z"/><path d="M35,50.632v-1.119c-0.922-0.191-1.934-0.306-3-0.306c-1.847,0-3.57,0.315-4.851,0.849C28.649,50.659,30.284,51,32,51  C33.035,51,34.036,50.863,35,50.632z"/></svg>