<?xml version="1.0" ?><svg height="64" id="svg8" version="1.1" viewBox="0 0 16.933333 16.933334" width="64" xmlns="http://www.w3.org/2000/svg" xmlns:cc="http://creativecommons.org/ns#" xmlns:dc="http://purl.org/dc/elements/1.1/" xmlns:inkscape="http://www.inkscape.org/namespaces/inkscape" xmlns:rdf="http://www.w3.org/1999/02/22-rdf-syntax-ns#" xmlns:sodipodi="http://sodipodi.sourceforge.net/DTD/sodipodi-0.dtd" xmlns:svg="http://www.w3.org/2000/svg"><defs id="defs2"/><g id="layer1"><path d="m 3.6229719,5.7411966 c 0.1213518,-0.06358 0.1862896,-0.163497 0.2175589,-0.2454626 0.026107,-0.06233 0.032304,-0.08152 0.050643,-0.1033526 0.018338,-0.021831 0.059911,-0.059841 0.1782844,-0.1100703 0.1183779,-0.05023 0.174135,-0.053139 0.2025726,-0.05116 0.028438,0.00201 0.03937,0.0085 0.1023198,0.033073 0.079486,0.03384 0.2043044,0.060659 0.3343482,0.017571 0.1300433,-0.04309 0.2286308,-0.1267445 0.352436,-0.252698 0.1238054,-0.1259509 0.2078846,-0.2324543 0.2464978,-0.3560497 0.040858,-0.1307747 0.014288,-0.241951 -0.02377,-0.3348623 -0.025606,-0.062529 -0.03112,-0.073921 -0.03359,-0.102319 -0.00249,-0.0284 -0.00169,-0.084371 0.046509,-0.2036047 0.048197,-0.1192308 0.091547,-0.1664207 0.1069707,-0.1798335 0.021508,-0.018709 0.034769,-0.021931 0.096635,-0.049093 0.061867,-0.02717 0.1785695,-0.08388 0.248565,-0.2232417 C 5.8077483,3.463032 5.8222833,3.329345 5.8207833,3.1527306 5.8192833,2.976117 5.8047773,2.8477654 5.741201,2.7264016 5.6776237,2.6050361 5.5814092,2.5450448 5.4900521,2.5067771 c -0.062326,-0.02611 -0.07584,-0.030236 -0.097669,-0.048576 -0.021829,-0.01834 -0.06037,-0.058341 -0.1105879,-0.176733 -0.050217,-0.1183911 -0.052623,-0.1741303 -0.050643,-0.202571 0.00201,-0.02844 0.0085,-0.041431 0.033073,-0.1043862 0.02454,-0.06296 0.066176,-0.1876098 0.017571,-0.3343456 C 5.2387066,1.5101076 5.1550359,1.4115512 5.029096,1.2877332 4.9031591,1.1639142 4.8032884,1.0841651 4.672527,1.0433044 4.5417675,1.0024447 4.4263864,1.0302354 4.3402461,1.0655252 c -0.062526,0.02561 -0.074438,0.03267 -0.1028366,0.03514 -0.028398,0.0025 -0.095169,-0.0018 -0.2056733,-0.046509 C 3.9125179,1.0059564 3.8737094,0.96663646 3.855002,0.94511934 3.8362929,0.92360939 3.8310109,0.91035443 3.8038417,0.84848459 3.7742736,0.78113526 3.7143903,0.66865336 3.584733,0.60405583 3.4680312,0.54591358 3.3400384,0.52937262 3.1757121,0.52912522 c -0.1643248,2.454e-4 -0.29232,0.016788 -0.4090208,0.0749308 -0.1296528,0.0645998 -0.1895427,0.17708243 -0.2191091,0.24442886 -0.027158,0.0618698 -0.032452,0.0751248 -0.05116,0.0966347 -0.018708,0.0215099 -0.058036,0.0608409 -0.1772509,0.10903692 -0.1105062,0.04467 -0.1772737,0.04898 -0.2056733,0.046509 -0.028398,-0.0025 -0.040311,-0.0095 -0.1028365,-0.03514 -0.086145,-0.03529 -0.2015198,-0.063081 -0.3322807,-0.022221 -0.1307611,0.04086 -0.2306317,0.1206098 -0.3565691,0.2444288 -0.1259372,0.123818 -0.2096174,0.2223744 -0.252699,0.3524324 -0.048598,0.1467358 -0.007,0.2713851 0.01757,0.3343456 0.024538,0.06296 0.031093,0.075941 0.033073,0.1043862 0.002,0.02844 -4.206e-4,0.08418 -0.050643,0.202571 -0.050198,0.11839 -0.0887094,0.1583951 -0.1105879,0.176733 -0.0217991,0.01834 -0.0352722,0.022466 -0.0976695,0.048576 -0.0913954,0.03827 -0.18757218,0.09826 -0.25114868,0.2196245 -0.0635963,0.1213637 -0.0780824,0.2497153 -0.0795824,0.4263293 -0.002,0.1766144 0.0130341,0.3103019 0.0718303,0.4273628 0.0699963,0.1393639 0.18669818,0.1960759 0.24856477,0.2232417 0.0618963,0.02717 0.0751364,0.030383 0.0966355,0.049093 0.0153991,0.013409 0.0588133,0.060601 0.10697081,0.1798335 0.048198,0.1192312 0.048979,0.1752018 0.046509,0.2036047 -0.0025,0.0284 -0.008,0.039791 -0.03359,0.102319 -0.038098,0.09291 -0.064568,0.2040876 -0.023771,0.3348623 0.038618,0.1235964 0.1226923,0.2300988 0.2464977,0.3560497 0.1238053,0.1259524 0.2223911,0.2096095 0.3524349,0.2526973 0.130044,0.04309 0.2543414,0.01628 0.3338314,-0.017571 0.062956,-0.02454 0.073879,-0.031093 0.1023197,-0.033073 0.028438,-0.00201 0.0842,9.261e-4 0.2025726,0.05116 0.1183776,0.05023 0.1604652,0.088241 0.1788013,0.1100703 0.018338,0.021831 0.024545,0.041031 0.050643,0.1033526 0.031268,0.08197 0.096211,0.1818821 0.2175588,0.2454626 0.1213514,0.06358 0.247671,0.078072 0.4475194,0.079582 0.1998481,-0.00151 0.326169,-0.016002 0.4475195,-0.079582 z M 11.377058,2.380687 c 0,0.6631935 0.342071,1.2052245 0.794271,1.5198 l -5.17e-4,0.5973778 c -3.97e-4,0.4434266 0.357094,0.7932313 0.792203,0.7932313 h 0.530203 c 0.435109,0 0.793624,-0.3498047 0.793238,-0.7932313 l -5.3e-4,-0.5973778 c 0.452212,-0.3145755 0.79427,-0.8566065 0.79427,-1.5198 0,-1.0195629 -0.825479,-1.85128078 -1.852085,-1.85156178 -1.026608,2.8e-4 -1.851053,0.83199888 -1.851053,1.85156178 z M 10.580204,1.0546731 C 10.341801,1.0542392 10.22446,1.3446107 10.396235,1.5099413 l 0.264068,0.2656162 c 0.250031,0.260743 0.635714,-0.1254699 0.374655,-0.3751699 L 10.769341,1.1368384 c -0.04934,-0.05184 -0.11758,-0.08148 -0.189137,-0.082165 z m 5.296859,0 c -0.07156,6.853e-4 -0.139803,0.030326 -0.189137,0.082165 l -0.265618,0.2635492 c -0.261058,0.2497 0.124624,0.6359129 0.374657,0.3751699 L 16.061032,1.509941 c 0.171777,-0.1653306 0.05444,-0.4557022 -0.183969,-0.4552679 z m -3.36467,1.5135986 0.451654,0.4521677 V 3.4395343 H 12.439014 C 12.115959,3.1987942 11.906227,2.8165313 11.906227,2.380687 c 0,-0.7335791 0.594656,-1.3215987 1.32189,-1.3218819 0.727235,2.785e-4 1.322923,0.5882987 1.322923,1.3218778 0,0.4358443 -0.209731,0.8181072 -0.532787,1.0588473 H 13.493218 V 3.0194059 l 0.451138,-0.451134 c 0.170507,-0.1709977 0.04229,-0.4623624 -0.198956,-0.4521675 -0.0663,0.0027 -0.129188,0.030188 -0.176217,0.076998 L 13.228117,2.5346824 12.887051,2.193102 C 12.840021,2.146292 12.777647,2.118814 12.69843,2.116104 12.456634,2.128624 12.350399,2.4060848 12.512393,2.5682717 Z M 2.9920009,5.2755942 C 2.9759618,5.2359134 2.9418171,5.1446732 2.8638427,5.0518359 2.7819279,4.9543057 2.6602278,4.8674982 2.4881541,4.7944869 c -0.1720747,-0.07301 -0.317883,-0.09981 -0.4449362,-0.09095 -0.1211966,0.0085 -0.2131631,0.048625 -0.252699,0.064595 -0.01065,-0.007 -0.037093,-0.023851 -0.1255743,-0.1116208 C 1.6253967,4.6172816 1.573827,4.5547933 1.5584907,4.5335217 1.5749398,4.4946119 1.6187084,4.4040666 1.6292877,4.2823747 1.6403172,4.1554769 1.6140776,4.0081724 1.5440212,3.8348581 1.4739651,3.6615432 1.3900138,3.537587 1.2939061,3.4540038 1.2025009,3.3745139 1.1090852,3.3389649 1.0696293,3.3222292 c -0.004,-0.01791 -0.00797,-0.056791 -0.011369,-0.1658809 0.005,-0.1276844 0.010306,-0.1462351 0.014986,-0.1643306 0.039148,-0.01588 0.1328319,-0.04959 0.2263439,-0.1281573 0.097524,-0.08193 0.1843477,-0.2035932 0.2573499,-0.3756867 0.073006,-0.1720928 0.099811,-0.3199321 0.09095,-0.447 -0.0085,-0.1221321 -0.049414,-0.212638 -0.065112,-0.2516636 0.0026,-0.0029 0.020042,-0.036001 0.1090377,-0.1235064 0.090234,-0.08872 0.1048259,-0.092151 0.1271247,-0.1085202 0.038908,0.01645 0.1279379,0.059183 0.2495984,0.069763 0.1268845,0.01103 0.2747411,-0.013139 0.4480367,-0.083199 0.1732958,-0.07006 0.2967656,-0.1560622 0.3803404,-0.2521804 0.079485,-0.091409 0.1119397,-0.1796437 0.1286749,-0.2191074 0.00241,2.11e-4 0.042737,-0.012049 0.1503792,-0.012923 0.1076436,8.667e-4 0.1480248,0.013125 0.1503796,0.012915 0.016738,0.03946 0.049192,0.1276972 0.1286749,0.2191075 0.083575,0.096119 0.2070435,0.1821189 0.3803403,0.2521804 0.1732958,0.07006 0.3206358,0.094229 0.44752,0.083199 0.1216605,-0.01058 0.2101698,-0.053313 0.2490815,-0.069763 0.022297,0.01637 0.036884,0.019799 0.1271247,0.1085202 0.089005,0.0875 0.1064241,0.1205633 0.1090377,0.1235064 -0.0157,0.03903 -0.056593,0.1295305 -0.065112,0.2516636 -0.0089,0.1270669 0.017955,0.2749063 0.09095,0.4469999 0.073006,0.1720928 0.1598292,0.2937571 0.2573498,0.3756868 0.093514,0.078559 0.1872007,0.1122743 0.2263439,0.1281572 0.0046,0.0181 0.00981,0.036651 0.014986,0.1643306 -0.0031,0.10909 -0.0075,0.1479691 -0.011369,0.1658811 -0.039458,0.01673 -0.1328768,0.05228 -0.2242771,0.1317746 -0.096104,0.083579 -0.1800619,0.2075383 -0.2501149,0.3808543 -0.070056,0.1733132 -0.096294,0.3206185 -0.085266,0.4475166 0.010581,0.121693 0.054357,0.2122401 0.070797,0.2511469 -0.01534,0.02127 -0.066909,0.083761 -0.1064537,0.1229893 C 4.5974775,4.7442729 4.5710417,4.7611489 4.5603882,4.7681234 4.52085,4.7521729 4.4288857,4.711998 4.3076892,4.703538 4.180636,4.694638 4.0358616,4.721479 3.8637867,4.7944878 3.6917128,4.8674966 3.5700177,4.9543047 3.4880973,5.0518359 3.4101207,5.1446748 3.375979,5.2359137 3.3599391,5.2755942 c -0.01406,0.0071 -0.039567,0.013906 -0.1839692,0.014986 -0.1443991,-0.00111 -0.169913,-0.0079 -0.183969,-0.014986 z M 10.31872,2.1166121 c -0.3528225,0 -0.3528225,0.5291653 0,0.5291653 h 0.264584 c 0.352823,0 0.352823,-0.5291653 0,-0.5291653 z m 5.555243,0 c -0.352823,0 -0.352823,0.5291653 0,0.5291653 h 0.264584 c 0.352824,0 0.352824,-0.5291653 0,-0.5291653 z m -12.6974758,5.16e-4 c -0.5885775,0 -1.0588549,0.4774718 -1.0588549,1.0588472 0,0.5813765 0.4702774,1.0572971 1.0588549,1.0572971 0.588578,0 1.0562715,-0.4759206 1.0562715,-1.0572971 0,-0.5813754 -0.4676935,-1.0588472 -1.0562715,-1.0588472 z m 7.6651998,0.7911642 c -0.06855,0.00217 -0.133598,0.030898 -0.181384,0.080098 l -0.264068,0.2635585 c -0.260299,0.248654 0.123045,0.6341178 0.373106,0.3751698 l 0.265617,-0.2656161 c 0.171577,-0.1686744 0.04722,-0.4603022 -0.193271,-0.453201 z m 4.773892,0 c -0.240486,-0.0071 -0.364848,0.2845266 -0.193271,0.453201 l 0.265618,0.2656161 c 0.25006,0.258957 0.633404,-0.1265068 0.373106,-0.3751608 L 15.796965,2.9884003 c -0.04779,-0.0492 -0.112837,-0.077919 -0.181386,-0.080098 z M 8.4666287,3.7041169 c -1.6189666,0 -2.9104304,1.3031558 -2.9104304,2.9109259 V 7.1297389 C 5.391683,7.3039072 5.2910988,7.5528526 5.2910969,7.8123827 c -2.9e-6,0.4914697 0.354718,0.9317207 0.8376788,0.9317236 0.066367,0 0.1300645,-0.0074 0.1932708,-0.024289 0.1847285,0.3812863 0.4706473,0.7048462 0.8216592,0.9379246 v 0.3968741 c -0.8327241,1.71e-4 -1.5930489,0.407286 -2.1590514,0.94361 L 4.6420379,10.441155 C 4.5334178,10.264228 4.3673028,10.136921 4.1712634,10.079421 4.0951275,9.9185792 4.0564659,9.7580706 3.9986632,9.5450882 3.9294367,9.290022 3.8352584,8.9792974 3.6240075,8.6133646 L 2.6979615,7.009849 C 2.5619885,6.7743146 2.3260509,6.6346016 2.0654389,6.6155595 c -0.038178,-0.0028 -0.07678,-0.0028 -0.1152391,0 -0.1153687,0.0084 -0.2304356,0.042161 -0.336415,0.1033526 C 1.2308552,6.9400215 1.1053038,7.427775 1.322845,7.8046312 0.55884212,8.2457776 0.30563623,9.2147749 0.74303278,9.9724521 L 1.2722019,10.888673 c 0.1330138,0.230414 0.335673,0.390947 0.5705105,0.471288 -0.079126,0.213589 -0.063792,0.457746 0.05271,0.669207 l 1.3151715,2.388996 c 0.3182365,0.551257 0.6762799,0.827827 1.0805591,0.888315 0.070046,0.01047 0.1383947,0.01223 0.2067067,0.01033 v 0.558105 H 4.2348256 c -0.3606523,-0.008 -0.3606523,0.537172 0,0.529166 h 8.4636054 c 0.360652,0.008 0.360652,-0.537172 0,-0.529166 H 12.435397 V 15.31681 c 0.06831,0.0019 0.136664,1.36e-4 0.206706,-0.01033 0.40428,-0.06049 0.762323,-0.337056 1.08056,-0.888314 l 1.315171,-2.388997 c 0.1165,-0.211462 0.131825,-0.455619 0.05271,-0.669208 0.234839,-0.08034 0.437497,-0.240875 0.570511,-0.471288 l 0.529169,-0.9162199 c 0.437403,-0.757679 0.184193,-1.7266745 -0.579812,-2.1678219 0.21754,-0.3768548 0.09199,-0.8646097 -0.29094,-1.0857191 -0.141306,-0.081589 -0.298943,-0.1145104 -0.451655,-0.1033526 -0.260611,0.019039 -0.496549,0.158753 -0.632522,0.3942903 l -0.926046,1.6035156 c -0.211252,0.3659328 -0.30543,0.6766566 -0.374656,0.9317238 -0.0578,0.2129814 -0.09647,0.37349 -0.1726,0.5343328 -0.196039,0.0575 -0.362154,0.184806 -0.470775,0.361734 l -0.342615,0.55707 C 11.382601,10.461901 10.622276,10.054787 9.7895517,10.054617 V 9.6582599 c 0.3514213,-0.2333454 0.6379033,-0.5580641 0.8226913,-0.939475 0.06298,0.016769 0.125613,0.025321 0.191721,0.025321 0.482961,8e-7 0.837679,-0.4358597 0.837679,-0.9317228 0,-0.2591071 -0.09539,-0.5033584 -0.264585,-0.6826438 V 6.6150428 c 0,-1.6077701 -1.291463,-2.9109259 -2.9104293,-2.9109259 z M 9.648474,7.0212185 c 0.1844249,0.1844458 0.418471,0.3086438 0.670246,0.3601839 l -5.29e-4,0.3079906 c -0.0017,1.0241917 -0.8295357,1.8360592 -1.8515748,1.8360592 -1.0220397,0 -1.8515753,-0.8160433 -1.8515753,-1.8360592 V 7.4025897 C 7.6678713,7.3593298 8.6440146,7.058428 9.3420256,6.5401122 9.4078219,6.7200347 9.5105874,6.8833169 9.648474,7.0212185 Z M 1.7290237,10.62516 1.1998544,9.7068327 C 0.90463854,9.1954522 1.0855056,8.5524805 1.5874296,8.2619663 l 0.063045,0.1095538 c -0.028188,0.07077 -0.05236,0.1289955 -0.075448,0.2806024 -0.041528,0.2726667 -0.011282,0.6249522 0.2165253,1.0195733 0.1724477,0.3063262 0.634869,0.0403 0.4573385,-0.2635493 C 2.0834007,9.121472 2.0744036,8.8905366 2.0985113,8.7322207 c 0.024119,-0.1583168 0.072347,-0.226342 0.072347,-0.226342 0.055686,-0.0841 0.058599,-0.1925156 0.00775,-0.2795689 L 1.7817339,7.5390151 c -0.075566,-0.1309052 -0.027994,-0.2895499 0.096119,-0.3612175 0.029988,-0.01732 0.062709,-0.028453 0.096118,-0.033073 0.1002177,-0.013851 0.2067585,0.029681 0.2651014,0.1307411 L 3.1666686,8.8789814 C 3.3482227,9.1934728 3.4207715,9.4393053 3.487064,9.6835807 3.5265221,9.8289643 3.5624953,9.9744889 3.6183226,10.126964 3.1886508,10.368287 2.7499749,10.624988 2.3183959,10.873707 2.0905498,10.929947 1.8485361,10.832187 1.7290237,10.62516 Z M 13.315453,10.126963 c 0.05582,-0.152477 0.0918,-0.2980006 0.131259,-0.4433832 0.0663,-0.2442754 0.138323,-0.4901081 0.319878,-0.8045995 l 0.927593,-1.6035112 c 0.05834,-0.1010581 0.164882,-0.1445939 0.265102,-0.1307427 0.03341,0.0046 0.06613,0.015762 0.09612,0.033071 0.124116,0.07167 0.171691,0.2303123 0.09612,0.3612175 l -0.396875,0.687295 c -0.0509,0.08705 -0.04799,0.1954676 0.0078,0.2795689 0,0 0.04824,0.06803 0.07235,0.226342 0.02411,0.158317 0.01511,0.3892513 -0.150379,0.6759257 -0.177478,0.3038472 0.284891,0.5698755 0.457339,0.2635493 0.227812,-0.3946213 0.258048,-0.7469065 0.216526,-1.0195732 -0.02309,-0.1516069 -0.04726,-0.2098307 -0.07545,-0.2806024 l 0.06304,-0.1095538 c 0.501925,0.2905157 0.682795,0.9334828 0.387575,1.4448693 L 15.204282,10.625124 C 15.08477,10.832148 14.842754,10.929907 14.61491,10.87367 14.184696,10.627075 13.74226,10.367432 13.315453,10.126963 Z M 10.847372,7.4118913 c 0.135054,0.02712 0.265102,0.1831921 0.265102,0.4004914 0,0.2226529 -0.141682,0.4025582 -0.30851,0.4025582 -0.0055,0 -0.009,3.969e-4 -0.01447,0 0.0381,-0.1683454 0.05788,-0.3457084 0.05788,-0.5255479 z M 6.0858842,7.6893892 c 0,0.1798395 0.020804,0.356169 0.058911,0.5245145 -0.0057,4.233e-4 -0.01029,0.00103 -0.016021,0.00103 -0.149245,1.04e-5 -0.3085112,-0.1633656 -0.3085091,-0.4025526 1e-6,-0.2227383 0.1303814,-0.3715743 0.2656185,-0.3984271 z m 1.5869907,2.230349 c 0.2485624,0.08696 0.514062,0.1348748 0.7937538,0.1348748 0.279559,0 0.5451651,-0.04787 0.7937537,-0.1348748 V 10.186392 L 8.6190749,10.847331 H 8.4666287 8.3141824 L 7.6728749,10.186392 Z m -3.4814576,0.7989188 1.138437,1.855697 c 0.1849801,0.300754 0.6361177,0.02325 0.4511374,-0.277503 L 5.2688758,11.460729 C 5.532822,11.194453 5.8463618,10.964237 6.1897543,10.80599 l 1.0113126,1.26607 c 0.098565,0.123526 0.282767,0.133677 0.3942929,0.0217 l 0.073897,-0.0739 0.2490815,0.244429 -0.5064313,3.038566 c -0.013999,0.08425 0.013533,0.170078 0.073897,0.230477 l 0.3415827,0.34158 H 5.0270291 v -0.68057 C 5.1618698,15.140093 5.2945332,15.076506 5.4233893,15.002106 5.7296215,14.826408 5.4660758,14.367007 5.1598381,14.542703 4.847314,14.723158 4.5813819,14.814818 4.3686683,14.782998 4.1650532,14.752538 3.9323832,14.607709 3.6705164,14.154097 L 2.3579289,11.775438 c -0.076016,-0.137985 -0.026702,-0.297689 0.094051,-0.367418 l 1.3751164,-0.792715 c 0.027318,-0.01577 0.058009,-0.02652 0.089917,-0.03152 0.023926,-0.0037 0.048681,-0.0042 0.07338,-0.001 0.074086,0.0095 0.1476187,0.05172 0.2010227,0.13589 z m 8.7514437,-0.135908 c 0.02469,-0.0032 0.04945,-0.0027 0.07338,10e-4 0.03191,0.005 0.06261,0.01575 0.08992,0.03152 l 1.375117,0.792714 c 0.120755,0.06973 0.170069,0.229432 0.09405,0.367418 l -1.312588,2.37866 c -0.261866,0.453612 -0.495054,0.598438 -0.698668,0.628901 -0.212714,0.03182 -0.478129,-0.05984 -0.790653,-0.240295 -0.306234,-0.175698 -0.569784,0.283705 -0.263551,0.459402 0.128855,0.07441 0.26152,0.137989 0.396359,0.192236 v 0.680578 H 9.1058692 l 0.3415829,-0.34158 c 0.06038,-0.0604 0.08791,-0.146228 0.0739,-0.230477 l -0.5064315,-3.038566 0.2490816,-0.244428 0.073897,0.0739 c 0.1115275,0.111965 0.2957283,0.101818 0.3942928,-0.0217 l 1.011311,-1.26607 c 0.343393,0.158248 0.656932,0.388463 0.920878,0.654739 l -0.512115,0.836122 c -0.18498,0.300758 0.266157,0.578257 0.451137,0.277503 l 1.138437,-1.855697 c 0.05341,-0.08417 0.126939,-0.126369 0.201022,-0.135908 z m -5.6234547,10e-4 L 7.8304888,11.11033 7.4294777,11.509788 6.724091,10.62664 c 0.137952,-0.02869 0.2802041,-0.04289 0.4201314,-0.04289 z m 2.2944446,0 h 0.1751838 c 0.1399276,0 0.2821793,0.0142 0.4201313,0.04289 L 9.5037793,11.50982 9.1027686,11.110362 Z m -1.3017355,0.793233 h 0.1545133 0.1545131 l 0.2687188,0.268716 -0.421165,0.412894 -0.00206,-0.0021 -0.00206,0.0021 -0.421165,-0.412894 z m 0.072347,1.307409 c 0.026778,0.0087 0.054427,0.01149 0.082166,0.01137 0.027728,1.15e-4 0.055387,-0.0027 0.082165,-0.01137 L 8.9766774,15.255837 8.4666287,15.765365 7.95658,15.255837 Z" id="path2357" style="color:#000000;font-style:normal;font-variant:normal;font-weight:normal;font-stretch:normal;font-size:medium;line-height:normal;font-family:sans-serif;font-variant-ligatures:normal;font-variant-position:normal;font-variant-caps:normal;font-variant-numeric:normal;font-variant-alternates:normal;font-feature-settings:normal;text-indent:0;text-align:start;text-decoration:none;text-decoration-line:none;text-decoration-style:solid;text-decoration-color:#000000;letter-spacing:normal;word-spacing:normal;text-transform:none;writing-mode:lr-tb;direction:ltr;text-orientation:mixed;dominant-baseline:auto;baseline-shift:baseline;text-anchor:start;white-space:normal;shape-padding:0;clip-rule:nonzero;display:inline;overflow:visible;visibility:visible;opacity:1;isolation:auto;mix-blend-mode:normal;color-interpolation:sRGB;color-interpolation-filters:linearRGB;solid-color:#000000;solid-opacity:1;vector-effect:none;fill:#000000;fill-opacity:1;fill-rule:nonzero;stroke:none;stroke-width:0.52915025;stroke-linecap:round;stroke-linejoin:round;stroke-miterlimit:4;stroke-dasharray:none;stroke-dashoffset:0;stroke-opacity:1;paint-order:stroke fill markers;color-rendering:auto;image-rendering:auto;shape-rendering:auto;text-rendering:auto;enable-background:accumulate"/></g></svg>